<?xml version="1.0" encoding="utf-8"?>
<!-- Generator: Adobe Illustrator 26.0.3, SVG Export Plug-In . SVG Version: 6.00 Build 0)  -->
<svg version="1.0" id="katman_1" xmlns="http://www.w3.org/2000/svg" xmlns:xlink="http://www.w3.org/1999/xlink" x="0px" y="0px"
	 viewBox="0 0 600 450" style="enable-background:new 0 0 600 450;" xml:space="preserve">
<style type="text/css">
	.st0{fill:#01252A;}
	.st1{fill:#FFFFFF;}
</style>
<g>
	<polygon class="st0" points="344.9,141 353.5,99.9 100.8,99.9 59.4,297.8 270.7,297.8 259.1,350.9 461.4,350.9 506.1,141 	"/>
	<path class="st1" d="M145.5,272.5c-5.7,0-11.1-0.9-16.2-2.8c-5.1-1.9-9.5-4.6-13.3-8.3c-3.8-3.7-6.8-8.2-9-13.5
		c-2.2-5.3-3.3-11.5-3.3-18.4c0-9.5,1.3-18.1,4-25.9c2.6-7.8,6.3-14.5,11-20.1c4.7-5.6,10.4-9.9,16.9-12.9
		c6.6-3.1,13.8-4.6,21.6-4.6c5.3,0,10.3,0.9,15,2.8c4.7,1.9,8.9,4.5,12.5,8.1c3.6,3.5,6.4,7.9,8.5,13c2.1,5.2,3.2,11.1,3.2,17.8
		c0,1,0,2.2-0.1,3.6c-0.1,1.4-0.2,2.8-0.3,4.2c-0.1,1.4-0.3,2.8-0.4,4.2c-0.1,1.4-0.3,2.5-0.5,3.5H121c-0.1,0.9-0.1,1.8-0.1,2.6
		c0,0.8,0,1.7,0,2.6c0,5.3,0.8,9.8,2.3,13.5c1.5,3.7,3.5,6.8,6,9.1c2.4,2.4,5.2,4.1,8.3,5.1s6.1,1.6,9.3,1.6
		c6.8,0,12.3-1.2,16.4-3.5c4.1-2.4,7.3-5.5,9.5-9.5h17.5c-1.1,4-2.9,7.6-5.3,11.1s-5.6,6.4-9.4,8.9c-3.8,2.5-8.2,4.5-13.2,5.9
		C157,271.8,151.5,272.5,145.5,272.5z M179,209.8c0.1-0.3,0.1-0.9,0.1-1.8c0-0.9,0-1.7,0-2.5c0-3.4-0.5-6.6-1.5-9.6
		c-1-3-2.5-5.7-4.4-8c-2-2.3-4.4-4.1-7.4-5.4c-2.9-1.3-6.3-2-10.2-2c-4,0-7.6,0.7-11.1,2.1c-3.4,1.4-6.6,3.4-9.4,6
		c-2.8,2.6-5.2,5.7-7.3,9.3c-2,3.6-3.7,7.6-4.9,12L179,209.8L179,209.8z"/>
	<path class="st1" d="M243.3,272.5c-5.2,0-10-1-14.5-2.9c-4.5-1.9-8.5-4.7-11.9-8.4c-3.4-3.6-6.1-8-8.1-13.2c-2-5.2-3-10.9-3-17.3
		c0-6.2,0.6-12.1,1.9-17.7c1.2-5.6,3-10.9,5.3-15.7c2.3-4.8,5-9.2,8.3-13c3.2-3.9,6.8-7.2,10.7-9.9c3.9-2.7,8.1-4.8,12.7-6.3
		c4.5-1.5,9.3-2.2,14.3-2.2c3.7,0,7.2,0.5,10.6,1.5c3.3,1,6.4,2.4,9.1,4.2c2.7,1.8,5,4,7,6.6c1.9,2.6,3.4,5.4,4.2,8.5h1.5l12.7-59.9
		h16.7l-30.6,143.8h-15.9l3-14h-1.5c-3.8,4.9-8.5,8.8-14.1,11.6C255.9,271.1,249.8,272.5,243.3,272.5z M248.5,257.7
		c5.3,0,10.3-1.3,14.8-3.8c4.5-2.5,8.5-6,11.9-10.3c3.4-4.4,6-9.5,7.9-15.4s2.9-12.2,2.9-19.1c0-4.4-0.6-8.3-1.8-11.8
		c-1.2-3.5-2.9-6.5-5.2-8.9c-2.2-2.4-4.9-4.3-8.1-5.7c-3.2-1.3-6.8-2-10.8-2c-5.3,0-10.2,1.2-14.7,3.5c-4.5,2.4-8.4,5.6-11.7,9.8
		c-3.3,4.2-5.9,9.2-7.8,15c-1.9,5.8-2.9,12.2-2.9,19.1c0,4.3,0.6,8.3,1.9,11.9c1.2,3.6,3,6.7,5.2,9.3s4.9,4.6,8,6
		C241.2,257,244.7,257.7,248.5,257.7z"/>
	<g>
		<polygon class="st1" points="470.6,168.1 433.3,168.1 392.7,218.4 390.6,218.4 369.2,168.1 331.5,168.1 363.8,241.2 294,323.8 
			330.8,323.8 375.5,270.7 378.6,270.7 402.8,323.8 439.8,323.8 404,244.8 		"/>
	</g>
	<g>
		<path class="st0" d="M527.6,167.2c-1.8,0-3.5-0.3-5.1-1c-1.6-0.7-3-1.6-4.2-2.8c-1.2-1.2-2.2-2.6-2.8-4.2c-0.7-1.6-1-3.3-1-5.1
			s0.3-3.5,1-5.1c0.7-1.6,1.6-3,2.8-4.2c1.2-1.2,2.6-2.2,4.2-2.8c1.6-0.7,3.3-1,5.1-1c1.8,0,3.5,0.3,5.1,1c1.6,0.7,3,1.6,4.2,2.8
			c1.2,1.2,2.2,2.6,2.8,4.2c0.7,1.6,1,3.3,1,5.1s-0.3,3.5-1,5.1c-0.7,1.6-1.6,3-2.8,4.2c-1.2,1.2-2.6,2.2-4.2,2.8
			C531.2,166.8,529.5,167.2,527.6,167.2z M527.6,164.7c2,0,3.8-0.5,5.4-1.5s2.9-2.3,3.9-3.9c1-1.6,1.5-3.4,1.5-5.4
			c0-2-0.5-3.8-1.5-5.4c-1-1.6-2.3-2.9-3.9-3.9c-1.6-1-3.4-1.5-5.4-1.5s-3.8,0.5-5.4,1.5c-1.6,1-2.9,2.3-3.9,3.9
			c-1,1.6-1.5,3.4-1.5,5.4c0,2,0.5,3.8,1.5,5.4c1,1.6,2.3,2.9,3.9,3.9C523.9,164.2,525.7,164.7,527.6,164.7z M523.2,159.9v-12.2h5.8
			c0.6,0,1.2,0.1,1.8,0.4s1.1,0.7,1.4,1.3s0.6,1.3,0.6,2.1c0,0.8-0.2,1.5-0.6,2.1c-0.4,0.6-0.9,1.1-1.5,1.4
			c-0.6,0.3-1.2,0.5-1.9,0.5h-4.5v-1.7h4c0.6,0,1.1-0.2,1.5-0.6s0.7-1,0.7-1.7c0-0.8-0.2-1.3-0.7-1.6s-0.9-0.5-1.5-0.5h-3.1v10.5
			L523.2,159.9L523.2,159.9z M530.3,154.2l3,5.7h-2.4l-3-5.7H530.3z"/>
	</g>
</g>
</svg>
